<?xml version="1.0" standalone="no"?>
<!DOCTYPE svg PUBLIC "-//W3C//DTD SVG 20010904//EN"
 "http://www.w3.org/TR/2001/REC-SVG-20010904/DTD/svg10.dtd">
<svg version="1.0" xmlns="http://www.w3.org/2000/svg"
 width="256.000000pt" height="256.000000pt" viewBox="0 0 256.000000 256.000000"
 preserveAspectRatio="xMidYMid meet">
<metadata>
Created by potrace 1.14, written by Peter Selinger 2001-2017
</metadata>
<g transform="translate(0.000000,256.000000) scale(0.100000,-0.100000)"
fill="#000000" stroke="none">
<path d="M1218 2365 c-2 -2 -35 -5 -75 -8 -60 -5 -230 -40 -239 -50 -3 -3 4
-18 55 -109 17 -31 31 -66 31 -78 0 -30 -44 -69 -126 -111 -67 -34 -72 -35
-182 -34 l-113 0 -17 30 c-46 84 -37 82 -93 22 l-50 -54 -111 -2 c-61 0 -113
-2 -114 -4 -1 -1 20 -18 47 -37 28 -19 59 -43 70 -53 20 -18 20 -18 -6 -62
-55 -95 -108 -223 -122 -294 -2 -14 -6 -28 -9 -33 -6 -10 2 -11 94 -8 53 1 72
-2 73 -12 3 -63 -1 -267 -6 -301 -9 -54 -21 -76 -59 -109 -22 -20 -42 -28 -70
-28 -38 0 -38 0 -32 -32 35 -179 147 -388 285 -535 l50 -53 19 33 c10 17 33
58 51 89 24 43 40 59 66 68 31 10 40 8 102 -26 37 -20 74 -41 81 -47 15 -12
65 -40 110 -63 47 -24 66 -56 58 -99 -4 -19 -11 -35 -15 -35 -5 0 -12 -11 -15
-24 -3 -14 -12 -31 -19 -38 -21 -23 -48 -78 -43 -86 5 -8 80 -30 160 -47 47
-10 127 -17 201 -18 67 0 192 10 204 17 3 2 22 7 41 10 19 3 52 11 72 18 l37
13 -49 85 c-87 151 -87 151 108 264 82 47 157 86 168 86 29 -1 59 -29 95 -93
40 -69 51 -88 63 -105 8 -13 48 23 133 120 33 38 145 219 149 241 1 6 11 32
22 57 12 25 29 79 40 120 l20 75 -39 3 c-35 3 -44 11 -133 122 -53 66 -96 124
-96 129 0 5 15 15 34 21 52 17 122 84 142 135 15 41 20 45 50 45 19 0 34 4 34
9 0 6 -14 52 -31 103 -17 51 -33 108 -35 127 -7 76 -26 103 -159 238 -99 99
-135 129 -143 120 -6 -7 -22 -32 -36 -57 l-25 -45 -113 -1 -113 -2 -83 45
c-81 44 -112 73 -112 104 0 15 25 68 68 142 12 21 20 42 17 47 -6 9 -141 41
-200 47 -59 5 -164 10 -167 8z m114 -1199 c32 -98 29 -110 -25 -122 -52 -12
-87 -12 -103 0 -14 11 -18 70 -15 199 1 16 9 18 58 15 l57 -3 28 -89z"/>
</g>
</svg>
